<mxfile host="app.diagrams.net" modified="2024-01-29T11:52:01.060Z" agent="Mozilla/5.0 (X11; Linux x86_64) AppleWebKit/537.36 (KHTML, like Gecko) Chrome/120.0.0.0 Safari/537.36" version="23.0.2" etag="Mya_P-aVt9I3GjWr4-eJ" type="github">
  <diagram name="Page-1" id="IPc9l7Jabs2X6bEFtSWs">
    <mxGraphModel>
      <root>
        <mxCell id="0" />
        <mxCell id="1" parent="0" />
      </root>
    </mxGraphModel>
  </diagram>
</mxfile>
